<?xml version="1.0" standalone="no"?>
<!DOCTYPE svg PUBLIC "-//W3C//DTD SVG 20010904//EN"
 "http://www.w3.org/TR/2001/REC-SVG-20010904/DTD/svg10.dtd">
<svg version="1.0" xmlns="http://www.w3.org/2000/svg"
 width="25585.000000pt" height="6182.000000pt" viewBox="0 0 25585.000000 6182.000000"
 preserveAspectRatio="xMidYMid meet">

<g transform="translate(0.000000,6182.000000) scale(0.100000,-0.100000)"
fill="#000000" stroke="none">
<path d="M209240 61804 c-776 -28 -1206 -54 -1770 -109 -2771 -272 -5383 -997
-7918 -2199 -720 -342 -1534 -780 -2190 -1179 -90 -54 -165 -97 -167 -95 -2 2
286 806 641 1787 354 981 644 1785 644 1787 0 2 -2127 3 -4726 2 l-4726 -3
-4504 -12385 c-2477 -6812 -4504 -12392 -4504 -12401 0 -9 162 -472 359 -1030
1740 -4910 4333 -12227 4337 -12239 4 -10 12 -2 23 25 10 22 521 1434 1136
3138 615 1703 1121 3097 1125 3097 3 0 19 -39 34 -87 188 -584 516 -1428 819
-2108 918 -2062 2167 -4049 3706 -5895 733 -879 1295 -1475 2042 -2165 3063
-2830 6576 -4687 10544 -5574 1425 -318 2868 -508 4415 -581 589 -28 1135 -30
7740 -30 l6845 0 3295 4923 c1812 2707 4353 6505 5648 8440 1295 1934 2357
3517 2361 3516 3 0 1078 -1641 2388 -3647 1309 -2006 3761 -5760 5448 -8342
1687 -2582 3096 -4739 3131 -4792 l64 -98 5180 0 c2849 0 5180 2 5180 4 0 3
-74 116 -163 253 -90 136 -1241 1893 -2559 3903 -1317 2010 -2559 3905 -2760
4210 -666 1013 -806 1227 -1491 2275 -1536 2349 -5253 8054 -8281 12710 -675
1037 -2980 4511 -8724 13147 l-7807 11738 -5045 0 c-2775 0 -6087 2 -7360 4
-1273 2 -2358 2 -2410 0z m1300 -8593 c952 -56 1753 -161 2560 -337 2123 -462
4041 -1377 5750 -2743 654 -523 1269 -1105 1885 -1786 2417 -2671 3775 -5783
4064 -9315 170 -2071 -17 -4224 -529 -6072 -633 -2286 -1740 -4259 -3375
-6018 -377 -405 -1044 -1048 -1480 -1425 -1399 -1211 -2947 -2144 -4557 -2746
-1146 -428 -2393 -702 -3678 -808 -434 -36 -575 -42 -1121 -48 -543 -6 -872 3
-1309 33 -2937 201 -5595 1188 -7955 2954 -1120 838 -2115 1791 -2926 2805
-1813 2265 -2851 4927 -3144 8060 -58 626 -79 1190 -72 1992 5 622 16 898 52
1368 217 2780 1011 5208 2391 7313 605 921 1244 1685 2253 2692 2447 2442
5454 3795 9011 4055 177 12 438 26 735 39 169 7 1269 -3 1445 -13z"/>
<path d="M154990 61797 c0 -2 2160 -6078 4801 -13503 2640 -7424 5749 -16167
6909 -19429 1159 -3261 2852 -8020 3760 -10575 909 -2555 1659 -4664 1667
-4688 l15 -43 4773 3 c2625 2 4776 6 4780 9 3 4 -1127 3176 -2511 7050 -1384
3874 -3176 8891 -3983 11149 -806 2258 -3550 9938 -6096 17067 l-4630 12963
-4742 0 c-2609 0 -4743 -1 -4743 -3z"/>
<path d="M244462 61638 c-60 -90 -1527 -2269 -3261 -4842 -1733 -2574 -3150
-4685 -3147 -4691 2 -6 691 -1017 1532 -2246 840 -1228 2018 -2952 2617 -3829
600 -877 1121 -1639 1158 -1694 l68 -98 114 173 c62 96 575 876 1138 1734
8580 13058 10279 15644 10279 15649 0 3 -2338 6 -5195 6 l-5195 0 -108 -162z"/>
<path d="M3316 39849 c849 -1001 1948 -1872 3249 -2576 563 -305 1473 -712
1792 -802 503 -142 1894 -450 4263 -942 2518 -524 7997 -1647 9945 -2039 851
-171 1331 -285 1950 -462 1544 -441 2801 -1023 3704 -1716 302 -232 633 -540
856 -797 612 -706 970 -1516 1070 -2420 58 -520 26 -1196 -81 -1740 -404
-2052 -1874 -3487 -4424 -4320 -1811 -591 -4171 -876 -7045 -852 -779 7 -1194
21 -1815 62 -1843 123 -3413 423 -4630 885 -981 373 -1652 701 -2252 1101
-851 568 -1475 1244 -1871 2026 -327 646 -492 1314 -523 2126 l-7 177 -3743 0
-3744 0 0 -187 c0 -616 78 -1442 196 -2088 603 -3295 2516 -5987 5792 -8149
893 -590 2295 -1306 3567 -1821 2448 -992 4884 -1536 7615 -1699 588 -36 815
-41 1710 -41 1036 0 1426 14 2260 81 2406 192 4570 695 6795 1579 1354 538
2818 1281 3780 1920 1739 1154 3058 2429 4040 3905 1335 2007 1956 4303 1876
6940 -65 2156 -463 3910 -1247 5491 -953 1924 -2431 3429 -4484 4569 -639 355
-1594 786 -2008 906 -485 140 -1757 425 -3835 859 l-548 115 -11140 0 -11140
0 77 -91z"/>
<path d="M92666 39878 c-26 -265 -61 -907 -77 -1403 -13 -415 -7 -1554 11
-1910 38 -797 93 -1450 176 -2110 445 -3546 1629 -6773 3561 -9709 989 -1502
2146 -2894 3543 -4261 2918 -2856 6193 -4834 9800 -5919 1959 -589 3972 -911
6155 -986 374 -13 1363 -13 1710 0 1495 55 2886 232 4295 545 3695 821 7338
2621 10250 5064 567 475 1034 907 1590 1468 595 599 1036 1090 1556 1728 237
290 610 773 603 780 -6 6 -6281 4045 -6284 4045 -1 0 -66 -74 -144 -165 -1420
-1654 -3030 -2978 -4790 -3940 -2342 -1279 -4991 -1924 -7901 -1925 -2949 0
-5667 719 -8205 2173 -882 505 -1791 1136 -2535 1761 -2689 2258 -4428 4987
-5234 8211 -45 182 -123 521 -151 663 l-7 32 19955 0 19955 0 5 23 c10 40 65
347 96 532 107 643 179 1342 221 2135 18 326 24 1378 11 1795 -16 496 -56
1240 -77 1393 l-5 42 -24038 0 -24039 0 -6 -62z"/>
<path d="M144180 26755 l0 -13185 3735 0 3735 0 0 13185 0 13185 -3735 0
-3735 0 0 -13185z"/>
<path d="M40970 16900 l0 -16890 3745 0 3745 0 2 11592 3 11592 135 -185
c1453 -1993 2961 -3596 4663 -4957 2125 -1699 4479 -2924 7027 -3657 2420
-697 5059 -969 7800 -805 2412 145 4721 665 6830 1540 2092 868 4064 2119
5815 3689 458 411 1205 1144 1581 1551 676 734 1164 1296 1617 1862 2107 2636
3581 5521 4436 8688 219 814 414 1734 541 2555 22 143 42 272 45 288 l4 27
-3872 0 -3872 0 -34 -143 c-167 -703 -444 -1554 -731 -2243 -281 -673 -645
-1400 -1005 -2004 -800 -1343 -1849 -2639 -3104 -3838 -1649 -1572 -3415
-2694 -5421 -3440 -2172 -809 -4636 -1131 -7225 -947 -2595 185 -5012 932
-7136 2206 -1454 872 -2802 2000 -3935 3295 -1818 2077 -3034 4351 -3662 6846
l-67 268 -3962 0 -3963 0 0 -16890z"/>
</g>
</svg>
